<svg width="100" height="100" xmlns="http://www.w3.org/2000/svg">

 <g>
  <title>background</title>
  <rect fill="none" id="canvas_background" height="402" width="582" y="-1" x="-1"/>
 </g>
 <g>
  <title>Layer 1</title>
  <path stroke="null" id="svg_2" d="m24.655107,86.87839l0.004917,0l0.129484,-0.08523c7.064235,3.179725 13.73674,6.275859 15.379052,9.589985c0.170459,0.345836 0.275358,0.72937 0.340919,1.055538c0.804765,-0.750677 1.681648,-1.909474 2.330706,-3.745192c0.031142,-0.081952 0.057366,-0.144235 0.083591,-0.222909c0.039337,-0.109815 0.072117,-0.227826 0.10162,-0.340919c0.308138,-1.035869 0.54252,-2.253671 0.655613,-3.700938c0.001639,-0.045893 0.009834,-0.093425 0.013112,-0.147513c0.022946,-0.360587 0.047532,-0.732648 0.060644,-1.126016c0,-0.039337 -0.009834,-0.078674 -0.009834,-0.11801c-0.180294,-4.059886 -8.167304,-12.468128 -9.798143,-14.143221c-4.738446,-4.856456 -11.011027,-10.10792 -13.304035,-10.478342c-0.217991,-0.031142 -0.450734,-0.047532 -0.693311,-0.05081c-12.595973,0.388451 -13.587588,10.547181 -11.604358,13.705599c0.165542,0.275358 0.375339,0.550715 0.601525,0.826073c0.62775,0.67856 1.383344,1.363676 2.274979,2.053709c3.28954,2.424131 8.470525,4.563069 13.536778,6.83477l-0.103259,0.093425z"/>
  <path stroke="null" id="svg_3" d="m88.402039,43.761973c-10.448839,-12.110819 -26.024575,-11.137233 -31.400605,-26.957185c-1.347286,-5.428479 2.837167,-6.323391 4.051691,-8.763912c0.247494,-0.503183 0.503183,-1.021118 0.750677,-1.542331c0.676921,-1.460379 0.749038,-2.627371 0.209796,-3.471473c-0.557271,-0.868688 -2.038958,-4.359829 -9.635878,-0.196684c-2.719157,2.430687 -8.621317,3.461639 -5.42684,20.145361c0.411397,2.155329 2.817499,4.400805 5.823486,6.774126c1.760322,1.52594 4.094306,3.299375 7.205192,5.310469c3.084661,2.260227 6.164405,4.656494 8.349237,7.093737c0.460568,0.545798 0.889995,1.086679 1.268612,1.634116c0.545798,0.79657 0.980142,1.571833 1.325978,2.315954c0.375339,1.016201 0.680199,2.986319 0.463846,4.7155c-0.52613,1.067011 -1.663619,1.642312 -3.268233,1.650507c-0.875244,0 -2.843723,0.131123 -3.045324,-0.008195c-0.019668,0.062283 -0.054088,0.11801 -0.091786,0.16882c-1.435793,-1.024396 -3.341989,-2.314315 -5.42684,-3.54523c-4.156589,-2.448716 -7.71657,-3.912373 -10.286575,-4.218872c-2.856835,-0.337641 -4.01891,-0.527769 -4.604045,-0.62775c-0.05081,0 -0.096703,-0.008195 -0.147513,-0.008195c-5.113785,0 -10.194789,1.275168 -12.640227,3.17153c-1.881611,1.457101 -3.982852,3.538673 -5.764481,5.979194c0.398285,-0.096703 0.871966,-0.124567 1.375149,-0.13604c-0.588413,0.086869 -1.185021,0.154069 -1.771795,0.245855c-1.781629,2.163524 -3.17153,4.615518 -3.623903,7.159299c-0.001639,0 -0.008195,0.004917 -0.013112,0.004917c0.191767,-0.018029 0.383534,-0.027864 0.568745,-0.036059c-0.185211,0.045893 -0.3737,0.088508 -0.54252,0.127845c3.589483,1.137489 10.370165,7.398597 13.987512,11.10773c1.334173,1.365315 3.912373,4.110696 6.208659,7.103571c2.956817,3.853368 4.425391,6.831492 4.366385,8.845864c-0.13604,4.535206 -1.268612,7.398597 -2.520834,9.206451c2.016011,0.090147 5.344888,0.547437 7.577252,1.027674l0.049171,0.014751c2.707683,0.580218 5.51207,1.185021 7.695263,1.109626c2.676542,-0.091786 4.972828,-3.32396 5.485845,-4.102501c-0.686755,-0.812961 -1.304671,-1.771795 -1.327617,-2.642122c-0.009834,-0.493349 0.16882,-0.904747 0.557271,-1.258778l1.429237,-0.493349c0.804765,-0.276997 14.952903,-1.793103 22.16629,-14.095689c7.211748,-12.302586 4.981023,-27.757033 0.622833,-32.808535zm-49.133309,22.931718c0,-7.357622 5.031833,-9.978436 9.991549,-10.065305c7.944396,-0.132762 15.954353,7.473993 11.97314,6.790516c-0.562189,-0.093425 -4.389332,-5.08756 -12.484519,-2.969929c-8.557394,2.235642 -9.48017,6.244718 -9.48017,6.244718zm11.694504,5.184263c-3.440331,0 -6.229967,-2.786357 -6.229967,-6.233245s1.004728,0.229465 4.453254,0.229465c3.445249,0 8.018152,-3.676352 8.018152,-0.229465s-2.787996,6.233245 -6.24144,6.233245z"/>
 </g>
</svg>